<?xml version="1.0" encoding="UTF-8" standalone="no"?>
<svg width="23px" height="16px" viewBox="0 0 23 16" version="1.1" xmlns="http://www.w3.org/2000/svg" xmlns:xlink="http://www.w3.org/1999/xlink" xmlns:sketch="http://www.bohemiancoding.com/sketch/ns">
    <!-- Generator: Sketch 3.4.4 (17249) - http://www.bohemiancoding.com/sketch -->
    <title>Back</title>
    <desc>Created with Sketch.</desc>
    <defs></defs>
    <g id="Page-1" stroke="none" stroke-width="1" fill="none" fill-rule="evenodd" sketch:type="MSPage">
        <g id="firststep-2" sketch:type="MSArtboardGroup" transform="translate(-798.000000, -182.000000)" fill="#030303">
            <path d="M812.28911,190 L815.47022,186.81889 C815.662185,186.626924 815.666352,186.306175 815.47109,186.110913 C815.281539,185.921361 814.958856,185.91604 814.763113,186.111783 L811.582003,189.292893 L808.400893,186.111783 C808.208927,185.919818 807.888178,185.915651 807.692916,186.110913 C807.503364,186.300464 807.498043,186.623147 807.693786,186.81889 L810.874896,190 L807.693786,193.18111 C807.50182,193.373076 807.497653,193.693825 807.692916,193.889087 C807.882467,194.078639 808.20515,194.08396 808.400893,193.888217 L811.582003,190.707107 L814.763113,193.888217 C814.955078,194.080182 815.275828,194.084349 815.47109,193.889087 C815.660642,193.699536 815.665963,193.376853 815.47022,193.18111 L812.28911,190 Z M798.291949,190.709947 C797.899857,190.317854 797.905521,189.676482 798.291949,189.290053 L805.22793,182.354072 C805.423479,182.158524 805.809763,182 806.081126,182 L817.077593,182 C818.736883,182 820.082003,183.336631 820.082003,185.009478 L820.082003,194.990522 C820.082003,196.652611 818.743868,198 817.077593,198 L806.081126,198 C805.805468,198 805.429336,197.847333 805.22793,197.645928 L798.291949,190.709947 Z" id="Back" sketch:type="MSShapeGroup"></path>
        </g>
    </g>
</svg>